<svg width="23" height="26" viewBox="0 0 23 26" fill="none" xmlns="http://www.w3.org/2000/svg">
<path d="M19.9577 15.9077L22.4793 15.9077L22.4793 13.8141L15.1904 13.8141C15.0578 15.9864 13.2336 17.7102 11.0037 17.7102C8.77378 17.7102 6.94956 15.9864 6.81698 13.8141L1.05193e-05 13.8141L1.03363e-05 15.9077L2.08143 15.9077C2.19279 16.338 2.33862 16.7604 2.51362 17.1749C2.71248 17.6419 2.94846 18.088 3.22157 18.5104L1.39999 20.3128L4.2689 23.1516L6.09312 21.3465C6.51471 21.6115 6.96016 21.8424 7.42417 22.0365C7.94651 22.2543 8.48477 22.4248 9.03362 22.5429L9.03362 25.0537L13.0957 25.0537L13.0957 22.5219C13.6127 22.4038 14.1192 22.2412 14.6124 22.0365C15.1108 21.8293 15.5854 21.58 16.0335 21.2914L17.826 23.065L20.6975 20.2236L18.8759 18.4212C19.1252 18.025 19.34 17.6078 19.5256 17.1749C19.7006 16.7604 19.8464 16.338 19.9577 15.9077Z" fill="#FFB342"/>
<path d="M18.8742 4.705V8.93263C18.8742 9.21952 18.6372 9.45229 18.345 9.45229H17.9702C17.678 9.45229 17.441 9.21952 17.441 8.93263V3.60615C16.3551 2.89703 15.1368 2.36655 13.8304 2.06342V9.39816C13.8304 9.68505 13.5934 9.91781 13.3012 9.91781H9.167C8.87485 9.91781 8.63782 9.68505 8.63782 9.39816V2.06342C7.34793 2.36655 6.12971 2.90245 5.04378 3.60615V8.93263C5.04378 9.21952 4.80675 9.45229 4.5146 9.45229H4.13976C3.8476 9.45229 3.61057 9.21952 3.61057 8.93263V4.705C1.39462 6.71868 0 9.59303 0 12.7922H22.4793C22.4848 9.59303 21.0957 6.71868 18.8742 4.705Z" fill="#FFB342"/>
<path d="M12.7723 8.52294C12.7723 8.76487 12.595 8.96048 12.372 8.96048H10.1073C9.88998 8.96048 9.70697 8.76487 9.70697 8.52294V1.22373C9.70697 0.9818 9.88426 0.786194 10.1073 0.786194H12.372C12.5893 0.786194 12.7723 0.9818 12.7723 1.22373V8.52294Z" fill="#FFB342"/>
</svg>
