<svg width="18" height="18" viewBox="0 0 18 18" fill="none" xmlns="http://www.w3.org/2000/svg">
<path d="M12.6268 1.84736C13.6109 1.85019 14.5539 2.22791 15.2498 2.89802C15.9456 3.56813 16.3379 4.47619 16.3408 5.42386V12.5761C16.3379 13.5238 15.9456 14.4318 15.2498 15.1019C14.5539 15.7721 13.6109 16.1498 12.6268 16.1526H5.19944C4.21532 16.1498 3.27234 15.7721 2.57645 15.1019C1.88057 14.4318 1.48832 13.5238 1.48539 12.5761V5.42386C1.48832 4.47619 1.88057 3.56813 2.57645 2.89802C3.27234 2.22791 4.21532 1.85019 5.19944 1.84736H12.6268ZM12.6268 0.416992H5.19944C2.33969 0.416992 0 2.67003 0 5.42386V12.5761C0 15.3299 2.33969 17.583 5.19944 17.583H12.6268C15.4865 17.583 17.8262 15.3299 17.8262 12.5761V5.42386C17.8262 2.67003 15.4865 0.416992 12.6268 0.416992Z" fill="#1C2752"/>
<path d="M13.7409 5.42416C13.5205 5.42416 13.3051 5.36124 13.1219 5.24335C12.9387 5.12546 12.7959 4.9579 12.7116 4.76186C12.6272 4.56582 12.6052 4.3501 12.6482 4.14198C12.6912 3.93386 12.7973 3.74269 12.9531 3.59265C13.1089 3.44261 13.3074 3.34042 13.5235 3.29903C13.7397 3.25763 13.9637 3.27888 14.1673 3.36008C14.3708 3.44128 14.5448 3.5788 14.6673 3.75523C14.7897 3.93166 14.855 4.13909 14.855 4.35129C14.8553 4.49226 14.8267 4.63191 14.7709 4.76222C14.715 4.89252 14.6329 5.01091 14.5294 5.1106C14.4259 5.21028 14.3029 5.2893 14.1676 5.34311C14.0323 5.39692 13.8873 5.42446 13.7409 5.42416V5.42416ZM8.9131 6.13915C9.50074 6.13915 10.0752 6.30696 10.5638 6.62134C11.0524 6.93573 11.4332 7.38257 11.6581 7.90537C11.883 8.42818 11.9418 9.00345 11.8272 9.55846C11.7125 10.1135 11.4296 10.6233 11.014 11.0234C10.5985 11.4235 10.0691 11.696 9.49274 11.8064C8.91639 11.9168 8.31899 11.8602 7.77608 11.6436C7.23317 11.4271 6.76914 11.0603 6.44266 10.5898C6.11619 10.1193 5.94193 9.56616 5.94193 9.00028C5.94277 8.24171 6.25608 7.51444 6.81309 6.97805C7.37011 6.44167 8.12535 6.13997 8.9131 6.13915V6.13915ZM8.9131 4.70878C8.03167 4.70878 7.17005 4.96047 6.43717 5.43203C5.70429 5.90359 5.13309 6.57383 4.79578 7.35799C4.45847 8.14216 4.37022 9.00504 4.54218 9.83751C4.71413 10.67 5.13858 11.4346 5.76184 12.0348C6.3851 12.635 7.17918 13.0437 8.04367 13.2093C8.90815 13.3749 9.80422 13.2899 10.6185 12.9651C11.4329 12.6403 12.1289 12.0902 12.6186 11.3845C13.1083 10.6788 13.3696 9.84906 13.3696 9.00028C13.3696 7.8621 12.9001 6.77055 12.0644 5.96573C11.2286 5.16092 10.095 4.70878 8.9131 4.70878V4.70878Z" fill="#1C2752"/>
</svg>
