<svg width="19" height="20" viewBox="0 0 19 20" fill="none" xmlns="http://www.w3.org/2000/svg">
<path d="M9.80856 0.945404C4.80721 0.945404 0.751953 4.99885 0.751953 9.99797C0.751953 13.7039 2.98376 16.8884 6.17379 18.2908C6.14953 17.6603 6.16974 16.9005 6.33147 16.2135C6.50532 15.478 7.49589 11.2791 7.49589 11.2791C7.49589 11.2791 7.20478 10.7012 7.20478 9.84844C7.20478 8.50672 7.98107 7.50447 8.95142 7.50447C9.77621 7.50447 10.1724 8.12279 10.1724 8.86236C10.1724 9.69083 9.64279 10.9275 9.3719 12.0752C9.14549 13.037 9.85303 13.817 10.8032 13.817C12.5175 13.817 13.6738 11.6145 13.6738 9.0038C13.6738 7.01951 12.3355 5.53635 9.90559 5.53635C7.16031 5.53635 5.44602 7.5853 5.44602 9.87269C5.44602 10.6607 5.68053 11.2184 6.04441 11.6468C6.21018 11.8449 6.23443 11.9257 6.17379 12.152C6.12931 12.3177 6.03228 12.7178 5.9878 12.8794C5.92716 13.1098 5.74117 13.1906 5.53497 13.1057C4.26947 12.5885 3.67918 11.2063 3.67918 9.64637C3.67918 7.07609 5.85034 3.99256 10.1522 3.99256C13.6091 3.99256 15.8854 6.49414 15.8854 9.17758C15.8854 12.7299 13.9083 15.381 10.9972 15.381C10.0188 15.381 9.10101 14.8516 8.78565 14.2535C8.78565 14.2535 8.26004 16.3388 8.14683 16.7429C7.95681 17.4421 7.5808 18.1372 7.23713 18.6828C8.07078 18.9286 8.93535 19.0538 9.80452 19.0546C14.8059 19.0546 18.8611 15.0011 18.8611 10.002C18.8611 5.00289 14.8099 0.945404 9.80856 0.945404Z" fill="#1C2752"/>
</svg>
