<svg width="20" height="16" viewBox="0 0 20 16" fill="none" xmlns="http://www.w3.org/2000/svg">
<path d="M19.752 2.17065C19.0355 2.48195 18.2775 2.68705 17.5018 2.77945C18.317 2.30211 18.93 1.54377 19.2259 0.646668C18.4552 1.09733 17.6135 1.41354 16.7366 1.58175C16.3674 1.1948 15.9234 0.886965 15.4315 0.676966C14.9396 0.466968 14.4101 0.359187 13.8753 0.360175C11.7099 0.360175 9.95751 2.08709 9.95751 4.21589C9.95597 4.512 9.9899 4.80722 10.0586 5.09526C8.50582 5.02247 6.98536 4.62636 5.59446 3.93228C4.20356 3.2382 2.97285 2.26144 1.98108 1.06447C1.63314 1.65103 1.44913 2.32028 1.44828 3.00227C1.44828 4.33924 2.14581 5.52102 3.19907 6.21338C2.57504 6.19857 1.9638 6.03341 1.41724 5.73191V5.77966C1.41724 7.64982 2.77012 9.20564 4.5607 9.55977C4.22399 9.64953 3.87701 9.69501 3.52853 9.69506C3.28127 9.69549 3.03456 9.6715 2.79201 9.62344C3.28979 11.1554 4.73857 12.2695 6.45474 12.3013C5.06023 13.3761 3.34813 13.9569 1.58755 13.9527C1.27504 13.9522 0.962819 13.9336 0.652466 13.897C2.44351 15.0406 4.52547 15.6456 6.65051 15.6398C13.8669 15.6398 17.8094 9.7627 17.8094 4.66552C17.8094 4.4984 17.805 4.33128 17.7971 4.16814C18.5623 3.62383 19.2243 2.94741 19.752 2.17065Z" fill="#1C2752"/>
</svg>
